<svg width="142" height="222" viewBox="0 0 142 222" fill="none" xmlns="http://www.w3.org/2000/svg">
<path d="M74.0566 121.619L74.0566 6.86646e-05L81.1907 6.83527e-05C114.775 6.68847e-05 142 27.2253 142 60.8094C142 94.3934 114.775 121.619 81.1907 121.619L74.0566 121.619Z" fill="#191919"/>
<path d="M0 0H67.9434V57.0724H0V0Z" fill="#191919"/>
<path d="M67.9434 187.524C67.9432 206.286 52.7336 221.496 33.9717 221.496C15.2098 221.496 0.000187433 206.286 0 187.524V63.8669H67.9434V187.524ZM33.9736 158.308C18.2135 158.308 5.4375 171.084 5.4375 186.844C5.43752 202.605 18.2135 215.381 33.9736 215.381C49.7336 215.38 62.5097 202.604 62.5098 186.844C62.5098 171.084 49.7336 158.309 33.9736 158.308Z" fill="#191919"/>
</svg>
