<svg width="142" height="222" viewBox="0 0 142 222" fill="none" xmlns="http://www.w3.org/2000/svg">
<path d="M74.0566 121.619L74.0566 6.86646e-05L81.1907 6.83527e-05C114.775 6.68847e-05 142 27.2253 142 60.8094C142 94.3934 114.775 121.619 81.1907 121.619L74.0566 121.619Z" fill="url(#paint0_linear_528_33)"/>
<path d="M0 0H67.9434V57.0724H0V0Z" fill="#737373"/>
<path d="M67.9434 187.657C67.9432 206.419 52.7336 221.629 33.9717 221.629C15.2098 221.629 0.000187433 206.419 0 187.657V64H67.9434V187.657ZM33.5361 159C17.7761 159 5.00004 171.776 5 187.536C5 203.296 17.7761 216.072 33.5361 216.072C49.2962 216.072 62.0723 203.296 62.0723 187.536C62.0722 171.776 49.2962 159 33.5361 159Z" fill="url(#paint1_linear_528_33)"/>
<defs>
<linearGradient id="paint0_linear_528_33" x1="108" y1="-5.5" x2="108" y2="134.5" gradientUnits="userSpaceOnUse">
<stop stop-color="#FFC987"/>
<stop offset="1" stop-color="#6A1523"/>
</linearGradient>
<linearGradient id="paint1_linear_528_33" x1="33.9717" y1="64" x2="33.9717" y2="221.629" gradientUnits="userSpaceOnUse">
<stop stop-color="#DFDCDA"/>
<stop offset="1" stop-color="#858176"/>
</linearGradient>
</defs>
</svg>
