<svg width="144" height="225" viewBox="0 0 144 225" fill="none" xmlns="http://www.w3.org/2000/svg">
<path d="M75.0996 123.332L75.0996 -6.10352e-05L82.3342 -6.13514e-05C116.391 -6.28401e-05 144 27.6088 144 61.6661C144 95.7234 116.391 123.332 82.3342 123.332L75.0996 123.332Z" fill="white"/>
<path d="M0 0.000244141H68.9007V57.8769H0V0.000244141Z" fill="white"/>
<path d="M68.9004 190.166C68.9003 209.192 53.4766 224.616 34.4502 224.616C15.4239 224.616 2.85461e-05 209.192 0 190.166V64.7666H68.9004V190.166ZM34.4541 160.539C18.4723 160.539 5.51683 173.495 5.5166 189.477C5.5166 205.459 18.4721 218.415 34.4541 218.415C50.4363 218.415 63.3926 205.459 63.3926 189.477C63.3924 173.495 50.4362 160.539 34.4541 160.539Z" fill="white"/>
</svg>
